<svg version="1.1" id="Layer_1" xmlns="http://www.w3.org/2000/svg" x="0" y="0" viewBox="0 0 372 371" xml:space="preserve"><style>.st1{fill:#9e96c0}.st3{fill:#06063f}.st4{fill:#fba1a1}.st5{fill:#fb4506}.st6{fill:#073c9e}.st7{fill:#8897ea}</style><g id="wYiHyY.tif"><path d="M0 61.8V0h372v371H0V77.8c.5 0 1 0 1.5.1.1.6.1 1.3.2 1.9.3.7.7 1.4 1 2.2 1.1 2.3 2.2 4.6 3.2 6.9 1 1.3 2 2.6 3 4 .9 1 1.9 2 2.8 3.1 1.8 1.6 3.5 3.1 5.3 4.7.7.6 1.5 1.2 2.2 1.8.2.1.5.2.7.3 1 .6 2.1 1.3 3.1 1.9 1.3.7 2.6 1.4 3.8 2.1 1.3.7 2.7 1.3 4 2 .3 0 .6.1.9.3.4.2.8.4 1.1.6 15.1 6 30.8 7.7 46.8 6.9-1.3 4.3-2.5 8.6-3.7 12.9-2.4 8.7-4.9 17.5-7.2 26.2-.5 2-.7 4-1 6.1 3.2 4.2 2.1 8.9 2.3 13.7.7 12.9 1.3 25.9 3.2 38.6 2.1 13.8 7.8 26.3 18.3 36.1-.5 1.4-1.6 3-1.3 4.1 1.4 4.4 3.1 8.7 4.9 13 8 18.4 23.1 28.4 41.8 31.3 14.5 2.3 29.4 1.9 44.1-3.2 13.7-4.8 25.7-11.4 35.4-22.1.3-.3.6-.6.9-.8v.1c1-.2 2.1-.2 2.8-.7 11.9-7.7 21.9-17.2 29.1-29.5.6.8 1.7 1.5 1.8 2.3 1.4 10.4 2.5 20.8 4 31.1 1.8 12.3 2.9 25 12.1 34.8.7.7 1.3 1.6 1.7 2.5 2.1 5 6.1 6.1 11 5.5 7.1-1 14.3-1.9 21.4-2.8l3.9.6c6.3 1 8.6 5 7.2 11.2-.5 2.3 0 5.4 1.1 7.6 2.1 4.1 5.3 7.6 7.3 11.7 4.9 10.1 12.3 17.1 23 20.7 1 .4 2.3 0 4.1 0-1.2-2.4-2.4-4.1-2.9-5.9-1.5-5.6-2.6-11.4-4.2-16.9-3.1-10.4-6.5-20.6-9.9-30.9-1.4-4.2-4.1-8.1-2.2-12.8 0-.1-1-.6-1.5-.9 5.1-2.3 9.1-5.7 13.1-9.6 5-4.9 11.2-8.7 16.8-13 .4-.3.8-.6 1.1-.9l1.2-.9c.3-.3.6-.7.9-1l.9-1.2c2.2-2.8 4.8-5.5 6.5-8.6 1.9-3.6.3-6.3-3.6-7.5-1.3-1.6-2.6-3.2-4-4.8-5.3-6.1-10.8-12.1-16-18.3-6.2-7.5-12.1-15.2-18.2-22.8 0-1.3.4-2.7.1-3.9-2.1-8.3-4.4-16.5-6.4-24.7-3.2-13-6.3-26.1-9.5-39.2-1-4.1-3.9-6.2-8-5.9-4.8.4-9.5 1.2-14.2 2.2-2.4.5-5.8 1-6.7 2.6-2 3.6-5.4 4.3-8.3 6-8.6 1.7-17.3 3.3-25.9 5.1-7.8 1.6-15.6 3.3-23.4 5 2.3-4.7 3.9-9.1 1.3-14.5-1.2-2.4-.5-5.8-.1-8.7 2-14.9 1.2-28.8-12.1-38.9-4.4-3.3-9-6.4-13.6-9.6-7.1-8.5-11.2-18.3-13.7-29 1.1-6 2.1-11.9 3.2-17.9 1.8-3.7 4.3-7.2 5.2-11.1 3-12.1 2.8-15.7-8.8-20.9-.8-.3-1.5-.7-2.2-1.1C173.6 2.5 164 .6 154 3.3c-14.4 3.9-20.4 14.3-22.3 28.3-1.9 14.1-11 24.3-24.7 26.9-9 1.7-17.4-1.1-25.2-5.4-9.7-5.3-19.2-11-28.8-16.4-.4-.2-.7-.5-1.1-.7L48 34.8c-.7-.3-1.4-.6-2.2-.8-6.3 0-12.6-.1-18.9-.1-.7.3-1.4.6-2.2.9l-2.4.9c-1.5.7-3 1.5-4.5 2.2l-3.6 2.4-3.3 2.7-1 1c-.7.9-1.4 1.8-2.1 2.8-.2.2-.4.3-.6.4l-2.1 3c-.3 1-.7 2-1 2.9-.5 1-.9 2-1.4 2.9-.1.6-.2 1.2-.4 1.7-.3.9-.6 1.7-.9 2.6-.1.5-.3 1.1-.4 1.6-.3-.1-.7-.1-1-.1z" fill="transparent"/><path class="st1" d="M1.5 77.9c-.5 0-1 0-1.5-.1v-16h1c.2 5.4.3 10.7.5 16.1z"/><path d="M301.6 315.7c-7.1.9-14.3 1.9-21.4 2.8-4.9.7-8.9-.4-11-5.5-.4-.9-1-1.7-1.7-2.5-9.3-9.8-10.3-22.5-12.1-34.8-1.5-10.3-2.6-20.8-4-31.1-.1-.8-1.2-1.6-1.8-2.3.6-2.2 1.8-4.3 1.7-6.5-.4-9.1-1.1-18.1-1.9-27.2-.1-1.2-.9-2.4-1-2.7-10.1 21.1-20.3 42.3-30.5 63.6-.4.8-.3 1.9-.4 2.9v-.1c-.3.3-.6.6-.9.8-9.7 10.8-21.7 17.3-35.4 22.1-14.6 5.1-29.5 5.5-44.1 3.2-18.8-2.9-33.9-13-41.8-31.3-1.8-4.2-3.6-8.6-4.9-13-.4-1.1.8-2.7 1.3-4.1 3.9 4.2 8.2 5 14.3 4.4 13.6-1.3 26.2-5.5 38.3-10.9 11.6-5.2 19.7-15.2 27.1-25.3 6.5-8.8 10.4-18.8 12.5-29.7 2-10.1 8.7-17.5 16.5-23.9 3-2.4 6.5-4.1 9.7-6.2 5.7 5 8.9 5 13.6 0 7.8-1.7 15.6-3.4 23.4-5 8.6-1.7 17.2-3.4 25.9-5.1 2.4 1.4 5.4 2.3 7 4.3 11.4 14.4 22.5 29 33.7 43.4 4 5.1 8.2 10.1 12.3 15.1 6 7.6 12 15.3 18.2 22.8 5.2 6.2 10.6 12.2 16 18.3 1.4 1.6 2.6 3.2 4 4.8 0 1.8.2 3.6-.2 5.3-.7 3.6-1.8 7.2-2.7 10.8l-.9 1.2c-.3.3-.6.7-.9 1l-1.2.9c-.4.3-.8.6-1.1.9-5.7 4.3-11.8 8.1-16.8 13-4 3.9-8 7.3-13.1 9.6-1.4.9-2.7 1.8-4.1 2.7-7.2 4.7-14.4 9-21.6 13.3z" fill="#3054e6"/><path class="st3" d="M1.5 77.9c-.2-5.3-.3-10.7-.5-16 .1-.5.3-1.1.4-1.6.3-.9.6-1.7.9-2.6.1-.6.2-1.2.4-1.7.5-1 .9-2 1.4-2.9.3-1 .7-2 1-2.9l2.1-3c.2-.1.5-.2.6-.4.7-.9 1.4-1.8 2.1-2.8l1-1 3.3-2.7 3.6-2.4c1.5-.7 3-1.5 4.5-2.2l2.4-.9c.7-.3 1.4-.6 2.2-.9 6.3 0 12.6.1 18.9.1.7.3 1.4.6 2.2.8l3.9 1.2c.4.2.7.5 1.1.7 9.6 5.5 19.1 11.1 28.8 16.4 7.8 4.3 16.2 7.2 25.2 5.4 13.7-2.6 22.8-12.8 24.7-26.9 1.9-13.9 7.9-24.4 22.3-28.3 10-2.7 19.6-.8 28.8 3.7.7.4 1.5.7 2.2 1.1 11.6 5.2 11.8 8.9 8.8 20.9-1 3.9-3.4 7.4-5.2 11.1-.1-1.2-.3-2.4-.4-3.5-.4-4.5.7-9.7-3.7-12.8-11.2-7.6-24.1-2.7-27.7 10.2-.1.4-.4.8-.9 1.7-1.3-.9-2.5-1.7-3.7-2.4-4.4-2.5-8.1-1.6-10 2.5-2.6 5.3-1.5 9.7 3.5 11.4 3.2 1.1 4.8 3.2 4.8 6.1 0 4.2.3 8.9-1.4 12.6-3 6.6-7.2 12.6-11 18.8-1.9 1.8-3.8 3.6-5.9 5.3-4.3 3.5-8.7 7-13 10.5-8 4.9-15.4 11-25.2 12.7-4.8.8-9.6 2.4-14.3 3.7-16.1.8-31.8-.9-46.8-6.9-.4-.2-.8-.4-1.1-.6-.3-.2-.5-.3-.9-.3-1.3-.7-2.7-1.3-4-2-1.3-.7-2.6-1.4-3.8-2.1-1-.6-2.1-1.3-3.1-1.9-.2-.1-.4-.2-.7-.3-.7-.6-1.5-1.2-2.2-1.8-1.8-1.6-3.5-3.1-5.3-4.7-.9-1-1.9-2-2.8-3.1-1-1.3-2-2.6-3-4-1.1-2.3-2.2-4.6-3.2-6.9-.3-.7-.7-1.4-1-2.2-.2-.9-.3-1.6-.3-2.2z"/><path class="st4" d="M210 158.6c-3.3 2-6.8 3.8-9.7 6.2-7.8 6.3-14.5 13.7-16.5 23.9-2.1 10.9-6.1 20.9-12.5 29.7-7.4 10.1-15.5 20.1-27.1 25.3-12.1 5.4-24.7 9.7-38.3 10.9-6.1.6-10.4-.2-14.3-4.4-10.5-9.8-16.2-22.3-18.3-36.1-2-12.7-2.6-25.7-3.2-38.6-.2-4.7.8-9.5-2.3-13.7 3.1-1 6.1-2.6 9.3-2.8 12.4-.7 24.8-1.2 37.2-1.3 3.5 0 7.1 1.9 10.6 2.9v29.3c2.2-.6 3.6-.9 4.9-1.4 11.4-4.5 22.6-9.5 34.1-13.3 7.2-2.4 12.3-6.1 15.6-12.9 2.5-5.1 5.7-10.2 11.9-12 3.5.7 7 2.2 10.4 1.9 5.1-.3 7.5 1.7 8.2 6.4z"/><path class="st5" d="M124.8 160.7c-3.5-1-7.1-2.9-10.6-2.9-12.4 0-24.8.6-37.2 1.3-3.1.2-6.2 1.8-9.3 2.8.3-2 .5-4.1 1-6.1 2.4-8.7 4.8-17.5 7.2-26.2 1.2-4.3 2.5-8.6 3.7-12.9 4.8-1.3 9.5-2.9 14.3-3.7 9.8-1.7 17.1-7.8 25.2-12.7 1.1 1.2 3.1 2.3 3.3 3.7 2.6 17.8 4.9 35.6 7.2 53.4.2 1.6 0 3.3-.1 5-1.4-.7-3.1-1.2-4.7-1.7z"/><path class="st4" d="M138.2 84.5c3.7-6.2 8-12.2 11-18.8 1.7-3.7 1.4-8.4 1.4-12.6 0-2.8-1.6-4.9-4.8-6.1-5-1.7-6.1-6-3.5-11.4 1.9-4 5.5-4.9 10-2.5 1.2.7 2.4 1.6 3.7 2.4.5-.9.8-1.3.9-1.7 3.6-12.9 16.5-17.8 27.7-10.2 4.5 3 3.3 8.2 3.7 12.8.1 1.2.3 2.4.4 3.5-1.1 6-2.1 11.9-3.2 17.9-1.2 1.8-2.6 3.6-3.7 5.5-1.8 3-3.3 6.3-7.4 6.3-3.5 0-4.1 2.1-4 4.8.2 4.6.5 9.3.8 13.9-1.7.9-3.8 1.3-5.1 2.6-5.4 5.7-9.6 6.1-16.1 1.3-3.8-2.6-7.9-5-11.8-7.7z"/><path class="st5" d="M210 158.6c-.7-4.7-3.1-6.7-8.2-6.4-3.4.2-6.9-1.2-10.4-1.9.3-10.7 1.2-21.5.8-32.2-.3-6.8-2.4-13.5-3.8-20.2 1.2-1.5 2.4-3.1 3.7-4.5 2.2-2.2 4.6-4.3 6.9-6.4 4.5 3.2 9.2 6.2 13.6 9.6 13.3 10 14.2 24 12.1 38.9-.4 2.9-1 6.4.1 8.7 2.6 5.4 1 9.9-1.3 14.5-4.6 4.9-7.8 4.9-13.5-.1z"/><path class="st6" d="M326 211.5c-4.1-5-8.3-10-12.3-15.1-11.3-14.5-22.3-29.1-33.7-43.4-1.6-2-4.6-2.9-7-4.3 2.9-1.7 6.4-2.4 8.3-6 .9-1.6 4.3-2.2 6.7-2.6 4.7-1 9.4-1.8 14.2-2.2 4.1-.3 7 1.7 8 5.9 3.2 13.1 6.2 26.2 9.5 39.2 2 8.3 4.3 16.5 6.4 24.7.3 1.1-.1 2.5-.1 3.8z"/><path class="st4" d="M301.6 315.7c7.2-4.3 14.4-8.6 21.6-13 1.4-.8 2.7-1.8 4.1-2.7.5.3 1.6.8 1.5.9-1.9 4.7.8 8.6 2.2 12.8 3.4 10.3 6.8 20.5 9.9 30.9 1.7 5.6 2.7 11.3 4.2 16.9.5 1.8 1.7 3.5 2.9 5.9-1.8 0-3 .3-4.1 0-10.6-3.6-18-10.7-23-20.7-2-4.1-5.3-7.6-7.3-11.7-1.1-2.2-1.7-5.2-1.1-7.6 1.4-6.1-.9-10.1-7.2-11.2-1.2-.1-2.5-.3-3.7-.5z"/><path class="st6" d="M217.5 272.5c.1-1 0-2.1.4-2.9 10.1-21.3 20.3-42.5 30.5-63.6.1.2.9 1.4 1 2.7.7 9.1 1.5 18.1 1.9 27.2.1 2.1-1.1 4.3-1.7 6.5-7.2 12.3-17.3 21.8-29.1 29.5-.9.4-2 .4-3 .6z"/><path class="st3" d="M199.2 86.9c-2.3 2.1-4.7 4.2-6.9 6.4-1.4 1.4-2.5 3-3.7 4.5-4.1 1.4-8.1 1.2-11.4-2-2.2-2.2-4-4.9-6-7.3-.3-4.6-.6-9.2-.8-13.9-.1-2.8.4-4.8 4-4.8 4.1 0 5.6-3.3 7.4-6.3 1.1-1.9 2.5-3.7 3.7-5.5 2.4 10.6 6.6 20.4 13.7 28.9z"/><path class="st7" d="M361.2 273.5c.9-3.6 1.9-7.2 2.7-10.8.3-1.7.1-3.5.2-5.3 3.9 1.2 5.5 4 3.6 7.5-1.7 3.1-4.3 5.8-6.5 8.6z"/><path class="st1" d="M22.4 35.5c-1.5.7-3 1.5-4.5 2.2 1.5-.7 3-1.4 4.5-2.2zM5.9 88.9c1 1.3 2 2.6 3 4-1-1.4-2-2.7-3-4zm8.3-48.8l-3.3 2.7 3.3-2.7zM8.9 92.9c.9 1 1.9 2 2.8 3.1-.9-1.1-1.9-2.1-2.8-3.1zm18 13.9c1.3.7 2.7 1.3 4 2-1.3-.7-2.7-1.3-4-2zM4.1 52.9c-.5 1-.9 2-1.4 2.9.5-.9.9-1.9 1.4-2.9zm5.8-9.1c-.7.9-1.4 1.8-2.1 2.8.7-.9 1.4-1.8 2.1-2.8zM7.2 47l-2.1 3 2.1-3zm12.7 55.8c1 .6 2.1 1.3 3.1 1.9-1-.7-2-1.3-3.1-1.9zM2.4 57.6c-.3.9-.6 1.7-.9 2.6.2-.9.5-1.7.9-2.6zm-.7 22.2c.3.7.7 1.4 1 2.2-.4-.7-.7-1.5-1-2.2zM17 100.7c.7.6 1.5 1.2 2.2 1.8-.7-.6-1.4-1.2-2.2-1.8zm31-66.1c-.7-.3-1.4-.6-2.2-.8.8.3 1.5.6 2.2.8zm-21.1-.9c-.7.3-1.4.6-2.2.9.8-.3 1.5-.6 2.2-.9zM53 36.6c-.4-.2-.7-.5-1.1-.7.4.2.7.5 1.1.7zm-21.2 72.5c.4.2.8.4 1.1.6-.4-.2-.7-.4-1.1-.6z"/><path class="st6" d="M216.6 273.2c.3-.3.6-.6.9-.8-.2.3-.6.5-.9.8z"/><path class="st7" d="M359.5 275.7c.3-.3.6-.7.9-1-.3.3-.6.6-.9 1zm-2.3 1.8c.4-.3.8-.6 1.1-.9-.3.3-.7.6-1.1.9z"/><path d="M171.2 88.5c2 2.5 3.8 5.1 6 7.3 3.2 3.2 7.2 3.4 11.4 2 1.3 6.7 3.5 13.5 3.8 20.2.4 10.7-.5 21.5-.8 32.2-6.2 1.8-9.4 6.8-11.9 12-3.4 6.8-8.4 10.5-15.6 12.9-11.6 3.8-22.8 8.9-34.1 13.3-1.3.5-2.8.8-4.9 1.4v-29.3c1.6.5 3.3 1.1 4.9 1.6 0-1.7.3-3.4.1-5-2.3-17.8-4.7-35.6-7.2-53.4-.2-1.3-2.2-2.4-3.3-3.7 4.4-3.5 8.7-6.9 13.1-10.5 2-1.7 3.9-3.5 5.9-5.3 4 2.6 8 5.1 11.9 7.9 6.4 4.8 10.6 4.4 16.1-1.3.7-1 2.9-1.4 4.6-2.3z" fill="#e90e0c"/></g></svg>