<svg id="Layer_1" data-name="Layer 1" xmlns="http://www.w3.org/2000/svg" viewBox="0 0 631.1 239.17"><defs><style>.cls-10,.cls-7{letter-spacing:0}</style></defs><path d="M109.47 72.79c1.66-6.3 5.06-22.66-2.79-39C95 9.41 61.5-8.69 41.05 4.37c-12.59 8-17.78 26.31-15.64 45" fill="#ff6d00"/><path d="M23.46 68.88C22 71.24 6.61 96.56 17.59 119.7c13.48 28.39 59.3 38.07 80.15 17.59 16.39-16.1 10.42-44.07 9.77-46.91" fill="#279100"/><text transform="translate(146.61 162.7)" font-family="MyriadPro-Regular,Myriad Pro" fill="#fff" font-size="150"><tspan letter-spacing="0">w</tspan> <tspan x="109.8" y="0">adesh</tspan></text><text transform="translate(146.61 229.17)" font-size="40" font-family="MyriadPro-Regular,Myriad Pro" fill="#fff"><tspan letter-spacing=".01em">S</tspan> <tspan class="cls-7" x="19.96" y="0">o</tspan> <tspan x="41.92" y="0" letter-spacing=".01em">f</tspan> <tspan x="54.04" y="0" letter-spacing=".01em">t</tspan> <tspan class="cls-10" x="67.64" y="0">w</tspan> <tspan class="cls-7" x="96.92" y="0">a</tspan> <tspan x="116.2" y="0" letter-spacing="-.01em">r</tspan> <tspan x="128.88" y="0">es</tspan> <tspan x="173.24" y="0" letter-spacing="0">P</tspan> <tspan x="194.68" y="0">v</tspan> <tspan x="213.92" y="0" letter-spacing="0">t</tspan> <tspan x="227.04" y="0">.</tspan> <tspan class="cls-10" x="243.79" y="0">L</tspan> <tspan x="262.51" y="0" letter-spacing="-.01em">t</tspan> <tspan class="cls-7" x="275.51" y="0">d</tspan></text><path d="M0 211.57h95.78v7.82H0zm522.89-3.91h95.78v7.82h-95.78z" fill="#fff" opacity=".4"/></svg>